<svg xmlns="http://www.w3.org/2000/svg" width="420" height="420" viewBox="0 0 420 420" version="1.1"><path d="M 35 70.500 L 35 106 70.500 106 L 106 106 106 70.500 L 106 35 70.500 35 L 35 35 35 70.500 M 315 70.500 L 315 106 350.500 106 L 386 106 386 70.500 L 386 35 350.500 35 L 315 35 315 70.500 M 175 140 L 175 175 105 175 L 35 175 35 210.500 L 35 246 105 246 L 175 246 175 280.500 L 175 315 140 315 L 105 315 105 350.500 L 105 386 210.500 386 L 316 386 316 350.500 L 316 315 281 315 L 246 315 246 280.500 L 246 246 316 246 L 386 246 386 210.500 L 386 175 316 175 L 246 175 246 140 L 246 105 210.500 105 L 175 105 175 140 M 176 210.500 L 176 245 210.500 245 L 245 245 245 210.500 L 245 176 210.500 176 L 176 176 176 210.500" stroke="none" fill="#94d4d4" fill-rule="evenodd"/><path d="M 0 210.002 L 0 420.005 210.250 419.752 L 420.500 419.500 420.752 209.750 L 421.005 0 210.502 0 L 0 0 0 210.002 M 0.491 210.500 C 0.491 326, 0.607 373.102, 0.750 315.170 C 0.893 257.239, 0.893 162.739, 0.750 105.170 C 0.607 47.602, 0.491 95, 0.491 210.500 M 35 70.500 L 35 106 70.500 106 L 106 106 106 70.500 L 106 35 70.500 35 L 35 35 35 70.500 M 315 70.500 L 315 106 350.500 106 L 386 106 386 70.500 L 386 35 350.500 35 L 315 35 315 70.500 M 175 140 L 175 175 105 175 L 35 175 35 210.500 L 35 246 105 246 L 175 246 175 280.500 L 175 315 140 315 L 105 315 105 350.500 L 105 386 210.500 386 L 316 386 316 350.500 L 316 315 281 315 L 246 315 246 280.500 L 246 246 316 246 L 386 246 386 210.500 L 386 175 316 175 L 246 175 246 140 L 246 105 210.500 105 L 175 105 175 140 M 176 210.500 L 176 245 210.500 245 L 245 245 245 210.500 L 245 176 210.500 176 L 176 176 176 210.500" stroke="none" fill="#f4f4f4" fill-rule="evenodd"/></svg>